/* XPM */
static char * tiles_print_xpm[] = {
"288 64 50 1",
" 	c None",
".	c #A0A0A0",
"+	c #000000",
"@	c #D0D0D0",
"#	c #404040",
"$	c #1963EF",
"%	c #D216B1",
"&	c #EFD819",
"*	c #1E0707",
"=	c #D219B2",
"-	c #D62BB8",
";	c #D93EBE",
">	c #0F0303",
",	c #DB4AC2",
"'	c #FFFFFE",
")	c #EC9FDE",
"!	c #D836BC",
"~	c #EA95DB",
"{	c #EFB1E4",
"]	c #FBF7FA",
"^	c #E578D2",
"/	c #EFB3E4",
"(	c #FCF8FB",
"_	c #EB9BDD",
":	c #EA96DB",
"<	c #EA97DB",
"[	c #D115B0",
"}	c #FFFFFF",
"|	c #E57FD3",
"1	c #E88FD8",
"2	c #C914A9",
"3	c #616161",
"4	c #D015AF",
"5	c #E164CB",
"6	c #E680D4",
"7	c #FDF9FC",
"8	c #F9F3F7",
"9	c #D93FBE",
"0	c #DC52C4",
"a	c #EA96DA",
"b	c #E16ACD",
"c	c #D31DB3",
"d	c #DC4BC2",
"e	c #DE57C7",
"f	c #D218B1",
"g	c #D733BA",
"h	c #DA40BF",
"i	c #D62DB8",
"j	c #CD15AD",
"k	c #D116B0",
"................................++++++++++++++++++++++++++++++++@@@@@@@@@@@@@@@@@@@@@@@@@@@@@@@@@@@@@@@@@@@@@@@@@@@@@@@@@@@@@@@@@@@@@@@@@@@@@@@@@@@@@@@@@@@@@@@@@@@@@@@@@@@#########@@@@@@@@@@@@                                                                                                ",
"###############.###############.+...$$$...$$$......$$$...$$$...+@.......@.......@.......@.......@.......@...+++++++++...@.......@.......@..+++++++++....@.......@.......###%%%%%%%%%###.@.......                                                                                                ",
"###############.###############.+...$$$...$$$......$$$...$$$...+@.......@.......@.......@.......@.......@.++#########++.@.......@.......@++#########++..@.......@......#%%%%%%%%%%%%%%%#@.......                                                                                                ",
"###############.###############.+...$$$...$$$......$$$...$$$...+@.......@.......@.......@.......@.......++##&&&&&&&&&##++.......@......++##&&&&&&&&&##++@.......@......#%%%%%%%%%%%%%%%#@.......                                                                                                ",
"###############.###############.+$$$########################$$$+@.......@.......@.......@.......@.....++##&&&&&&&&&&&&&##++.....@....++##&&&&&&&&&&&&&##++......@.....#%%%%%%%%%%%%%%%%%#.......                                                                                                ",
"###############.###############.+$$$########################$$$+@.......@.......@.......@.......@....++#&&&&&&&&&&&&&&&&&#++....@...++#&&&&&&&&&&&&&&&&&#++.....@.....#%%%%%%%%%%%%%%%%%%#......                                                                                                ",
"###############.###############.+$$$##$$$$$$$$$$$$$$$$$$$$##$$$+@.......@.......@.......@.......@...++#&&&&&&&&&&&&&&&&&&&#++...@..*+#&&&&&&&&&&&&&&&&&&&#++....@....#%%%%=-;;-=%=-;;-=%%#......                                                                                                ",
"###############.###############.+...##$$$$$$$$$$$$$$$$$$$$##...+@.......@.......@.......@.......@...+#&&&&&&&&&&&&&&&&&&&&&#+...@..>#&&&&&&&&&&&&&&&&&&&&&#+....@....#%%%%,''')!%!'''~!%%#......                                                                                                ",
"................................+...##$$$$$$$$$$$$$$$$$$$$##...+@@@@@@@@@@@@@@@@@@@@@@@@@@@@@@@@@@@+#&&&&&&&&&&&&&&&&&&&&&&&#+@@@@+#&&&&&&&&&&&&&&&&&&&&&&&#+@@@@@@@@#%%%%{''']^%/'''(^%%%#@@@@@                                                                                                ",
"#######.###############.########+...##$$$..............$$$##...+@.......@....+++++++....@.......@..+#&&&&&&&&&&&&&#+#&&&&&&&#+..@.+#&&&&&&&#+#&&&&&&&&&&&&&#+...@....#%%%%'''''_%'''''_%%%#.....                                                                                                ",
"#######.###############.########+$$$##$$$..............$$$##$$$+@.......@...++#####++...@.......@.+#&&&&&&&&&&&&&&+++&&&&&&&&#+.@+#&&&&&&&&+++&&&&&&&&&&&&&&#+..@....#%%%%''''':%'''''<[%%#.....                                                                                                ",
"#######.###############.########+$$$##$$$..............$$$##$$$+@.......@..+#}}}}}}}#+..@.......@.+#&&&&&&&&&&&&&&#+#&&&&&&&##+.@+##&&&&&&&#+#&&&&&&&&&&&&&&#+..@...#%%%%%'+++'|%'+++'12%%#.....                                                                                                ",
"#######.###############.########+$$$##$$$...33333333...$$$##$$$+@.......@.+#}}}}}}}}}#+.@.......@+#&&&&&&&&&&&&&&&&&&&&&&&##++..@.++##&&&&&&&&&&&&&&&&&&&&&&&#+.@...#4%%%%'+++'5%'+++'6%%%#.....                                                                                                ",
"#######.###############.########+...##$$$...3......3...$$$##...+@.......@++}}}}}}}}}}}++@.......@+#&&&&&&&&&&&&&&&&&&&&&##++....@...++##&&&&&&&&&&&&&&&&&&&&&#+.@...#%%%%%7+++89%'+++'0%%%%#....                                                                                                ",
"#######.###############.########+...##$$$...3......3...$$$##...+@.......@+#}}}}}}}}}}}#+@.......@+#&&&&&&&&&&&&&&&&&&&##++......@.....++##&&&&&&&&&&&&&&&&&&&#+.@...#4%%%%a'''bc%d'''ec%%%%#....                                                                                                ",
"#######.###############.########+...##$$$...3......3...$$$##...+@.......@+#}}}}}}}}}}}#+@.......@+#&&&&&&&&&&&&&&&&&&#++@.......@.......++#&&&&&&&&&&&&&&&&&&#+.@...#[%%%%fghi%%%%%%%%%%%%%#....                                                                                                ",
"................................+...##$$$...3......3...$$$##...+@@@@@@@@@+#}}}}}}}}}}}#+@@@@@@@@@+#&&&&&&&&&&&&&&&&&#+@@@@@@@@@@@@@@@@@@@@+#&&&&&&&&&&&&&&&&&#+@@@@@#[%%%%%%%%%%%%%%%%%%%%%#@@@@                                                                                                ",
"###############.###############.+...##$$$...3......3...$$$##...+@.......@+#}}}}}}}}}}}#+@.......@+#&&&&&&&&&&&&&&&&&&#+.@.......@.......@+#&&&&&&&&&&&&&&&&&&#+.@...#4%%%%%%%%%%%%%%%%%%%%%#....                                                                                                ",
"###############.###############.+...##$$$...3......3...$$$##...+@.......@+#}}}}}}}}}}}#+@.......@+#&&&&&&&&&&&&&&&&&&&#+@.......@.......+#&&&&&&&&&&&&&&&&&&&#+.@...#j%%%%%%%%%%%%k%%%%%%%%#....                                                                                                ",
"###############.###############.+$$$##$$$...33333333...$$$##$$$+@.......@++}}}}}}}}}}}++@.......@+#&&&&&&&&&&&&&&&&&&&&#+.......@......+#&&&&&&&&&&&&&&&&&&&&#+.@..#%j%%%%%%%%%%%%k%%%%%%%%#....                                                                                                ",
"###############.###############.+$$$##$$$..............$$$##$$$+@.......@.+#}}}}}}}}}#+.@.......@+#&&&&&&&&&&&&&&&&&&&&&#++.....@....++#&&&&&&&&&&&&&&&&&&&&&#+.@..#%%%%%%%%%%%%%%%%%%%%%%%%#...                                                                                                ",
"###############.###############.+$$$##$$$..............$$$##$$$+@.......@..+#}}}}}}}#+..@.......@.+#&&&&&&&&&&&&&&&&&&&&&##+....@...+##&&&&&&&&&&&&&&&&&&&&&#+..@..#%%%%%%%%%%%%%%%%%%%%%%%%#...                                                                                                ",
"###############.###############.+...##$$$..............$$$##...+@.......@...++#####++...@.......@.+#&&&&&&&&&&&&&&&&&&&&&&&#+...@..+#&&&&&&&&&&&&&&&&&&&&&&&#+..@.#%%%%%%%%%%%%%%%%%%%%%%%%%%#..                                                                                                ",
"###############.###############.+...##$$$$$$$$$$$$$$$$$$$$##...+@.......@....+++++++....@.......@..+#&&&&&&&&&&&&&&&&&&&&&&&#+..@.+#&&&&&&&&&&&&&&&&&&&&&&&#+...@.#%%%%%%%%%%%%%%%%%%%%%%%%%%#..                                                                                                ",
"................................+...##$$$$$$$$$$$$$$$$$$$$##...+@@@@@@@@@@@@@@@@@@@@@@@@@@@@@@@@@@@+#&&&&&&&&&&&&&&&&&&&&&&&#+@@@@+#&&&&&&&&&&&&&&&&&&&&&&&#+@@@@#%%%%%%%%%%%%%%%%%%%%%%%%%%%%#@                                                                                                ",
"#######.###############.########+$$$##$$$$$$$$$$$$$$$$$$$$##$$$+@.......@.......@.......@.......@...+#&&&&&&&&&&&&&&&&&&&&&#+...@..+#&&&&&&&&&&&&&&&&&&&&&#+....@#%%%%%%%%%%%%%%%%%%%%%%%%%%%%#.                                                                                                ",
"#######.###############.########+$$$########################$$$+@.......@.......@.......@.......@...++#&&&&&&&&&&&&&&&&&&&#++...@..++#&&&&&&&&&&&&&&&&&&&#++....@#%%%%%%%%%%%%%%%%%%%%%%%%%%%%#.                                                                                                ",
"#######.###############.########+$$$########################$$$+@.......@.......@.......@.......@....++#&&&&&&&&&&&&&&&&&#++....@...++#&&&&&&&&&&&&&&&&&#++.....@.#%%%%%%%%%%%%%%%%%%%%%%%%%%#..                                                                                                ",
"#######.###############.########+...$$$...$$$......$$$...$$$...+@.......@.......@.......@.......@.....++##&&&&&&&&&&&&&##++.....@....++##&&&&&&&&&&&&&##++......@.#%%%%%%%%%%%%%%%%%%%%%%%%%%#..                                                                                                ",
"#######.###############.########+...$$$...$$$......$$$...$$$...+@.......@.......@.......@.......@.......++##&&&&&&&&&##++.......@......++##&&&&&&&&&##++@.......@..##%%%###%%%%%%%%%###%%%%##...                                                                                                ",
"#######.###############.########+...$$$...$$$......$$$...$$$...+@.......@.......@.......@.......@.......@.++#########++.@.......@.......@++#########++..@.......@....###@..##%%%%%##...####.....                                                                                                ",
"#######.###############.########++++++++++++++++++++++++++++++++@.......@.......@.......@.......@.......@...+++++++++...@.......@.......@..+++++++++....@.......@.......@....#####......@.......                                                                                                ",
"@@@@@@@@@@@@@@@@@@@@@@@@@@@@@@@@++++++++++++++++++++++++++++++++@@@@@@@@@@@@@@@@@@@@@@@@@@@@@@@@@@@@@@@@@@@@@@@@@@@@@@@@@@@@@@@@@@@@@@@@@@@@@@@@@@@@@@@@@@@@@@@@@@@@@@@@@@@@@@@@@@@@@@@@@@@@@@@@                                                                                                ",
"@.......@.......@.......@.......+}}}333}}}333}}}}}}333}}}333}}}+@.......@.......@.......@.......@.......@...+++++++++...@.......@.......@.......@....++.@.......@.......@....+++++......@.......                                                                                                ",
"@.......@.......@.......@.......+}}}333}}}333}}}}}}333}}}333}}}+@.......@.......@.......@.......@.......@.++#########++.@.......@.......++......@...+##++.......@.......@.++#########++.@.......                                                                                                ",
"@.......@.......@.......@.......+}}}333}}}333}}}}}}333}}}333}}}+@.......@.......@.......@.......@.......++##&&&&&&&&&##++.......@.....++##+.....@...+#&##>*.....@.......++##&&&&&&&&&##++.......                                                                                                ",
"@.......@.......@.......@.......+333########################333+@.......@.......@.......@.......@.....++##&&&&&&&&&&&&&##++.....@....++#&&#+....@..+#&&&&#++....@.....++##&&&&&&&&&&&&&##++.....                                                                                                ",
"@.......@.......@.......@.......+333########################333+@.......@.......@.......@.......@....++#&&&&&&&&&&&&&&&&&#++....@...++#&&&&#+...@..+#&&&&&#++...@....++#&&&&&&&&&&&&&&&&&#++....                                                                                                ",
"@.......@.......@.......@.......+333##}}}}}}}}}}}}}}}}}}}}##333+@.......@.......@.......@.......@...++#&&&&&&&&&&&&&&&&&&&#++...@...+#&&&&&#+...@.+#&&&&&&&#+...@...++#&&&&&&&&&&&&&&&&&&&#++...                                                                                                ",
"@.......@.......@.......@.......+}}}##}}}}}}}}}}}}}}}}}}}}##}}}+@.......@.......@.......@.......@...+#&&&&&&&&&&&&&&&&&&&&&#+...@..+#&&&&&&&#+..@.+#&&&&&&&&#+..@...+#&&&&&&&&&&&&&&&&&&&&&#+...                                                                                                ",
"@@@@@@@@@@@@@@@@@@@@@@@@@@@@@@@@+}}}##}}}}}}}}}}}}}}}}}}}}##}}}+@@@@@@@@@@@@@@@@@@@@@@@@@@@@@@@@@@@+#&&&&&&&&&&&&&&&&&&&&&&&#+@@@@@+#&&&&&&&&#+@@+#&&&&&&&&&#+@@@@@+#&&&&&&&&&&&&&&&&&&&&&&&#+@@                                                                                                ",
"@.......@.......@.......@.......+}}}##}}}..............}}}##}}}+@.......@.......@.......@.......@..+#&&&&&&&&&&&&&&&&&&&&&&&#+..@.+#&&&&&&&&&&#+@+#&&&&&&&&&&#+.@..+#&&&&&&&&&&&&&&&&&&&&&&&#+..                                                                                                ",
"@.......@.......@.......@.......+333##}}}..............}}}##333+@.......@.......@.......@.......@.+#&&&&&&&&&&&&&&&&&&&&&&&&&#+.@.+#&&&&&&&&&&&#+#&&&&&&&&&&&#+.@.+#&&&&&&&&&&&&&&&&&&&&&&&&&#+.                                                                                                ",
"@.......@.......@.......@.......+333##}}}..............}}}##333+@.......@.......@.......@.......@.+#&&&&&&&&&&&&&&&&&&&&&&&&&#+.@+#&&&&&&&&&&&&&#&&&&#+#&&&&&&#+@.+#&&&&&&&&&&&&&&&&&&&&&&&&&#+.                                                                                                ",
"@.......@.......@.......@.......+333##}}}...33333333...}}}##333+@.......@.......@.......@.......@+#&&&&&&&&&&&&&&&&&&&&&&&&&&&#+@+#&&&&&&&&&&&&&&&&&&+++&&&&&&#+@+#&&&&&&&&&&&&&&&&&&&&&&&&&&&#+                                                                                                ",
"@.......@.......@.......@.......+}}}##}}}...3}}}}}}3...}}}##}}}+@.......@.......@.......@.......@+#&&&&&&&&&&&&&&&&&&&&&&&&&&&#+@+#&&&&&&&&&&&&&&&&&&#+#&&&&&&#+@+#&&&&&&&&&&&&&&&&&&&&&&&&&&&#+                                                                                                ",
"@.......@.......@.......@.......+}}}##}}}...3}}}}}}3...}}}##}}}+@.......@.......@.......@.......@+#&&&&&&&&&&&&&&&&&&&&&&&&&&&#+@+#&&&&&&&&&&&&&&&&&&&&&&&&&&&#+@+#&&&&&&&&&&&&&&&&&&&&&&&&&&&#+                                                                                                ",
"@.......@.......@.......@.......+}}}##}}}...3}}}}}}3...}}}##}}}+@.......@.......@.......@.......@+#&&&&&&&&&&&&&&&&&&&&&&&&&&&#+@+#&&&&&&&&&&&&&&&&&&&&&&&&&&&#+@+#&&&&&&&&&&&&&&&&&&&&&&&&&&&#+                                                                                                ",
"@@@@@@@@@@@@@@@@@@@@@@@@@@@@@@@@+}}}##}}}...3}}}}}}3...}}}##}}}+@@@@@@@@@@@@@@@@@@@@@@@@@@@@@@@@@+#&&&&&&&&&&&&&&&&&&&&&&&&&&&#+@+#&&&&&&&&&&&&&&&&&&&&&&&&&&&#+@+#&&&&&&&&&&&&&&&&&&&&&&&&&&&#+                                                                                                ",
"@.......@.......@.......@.......+}}}##}}}...3}}}}}}3...}}}##}}}+@.......@.......@.......@.......@+#&&&&&&&&&&&&&&&&&&&&&&&&&&&#+@+#&&&&&&&&&&&&&&&&&&&&&&&&&&&#+@+#&&&&&&&&&&&&&&&&&&&&&&&&&&&#+                                                                                                ",
"@.......@.......@.......@.......+}}}##}}}...3}}}}}}3...}}}##}}}+@.......@.......@.......@.......@+#&&&&&&&&&&&&&&&&&&#+#&&&&&&#+@+#&&&&&&&&&&&&&&&&&&&&&&&&&&&#+@+#&&&&&&&&&&&&&&&&&&&&&&&&&&&#+                                                                                                ",
"@.......@.......@.......@.......+333##}}}...33333333...}}}##333+@.......@.......@.......@.......@+#&&&&&&&&&&&&&&&&&&+++&&&&&&#+@+#&&&&&&&&&&&&&&&&&&&&&&&&&&&#+@+#&&&&&&&&&&&&&&&&&&&&&&&&&&&#+                                                                                                ",
"@.......@.......@.......@.......+333##}}}..............}}}##333+@.......@.......@.......@.......@+#&&&&&&&&&&&&&#&&&&#+#&&&&&&#+@.+#&&&&&&&&&&&&&&&&&&&&&&&&&#+.@+#&&&&&&&&&&&&&&&&&&&&&&&&&&&#+                                                                                                ",
"@.......@.......@.......@.......+333##}}}..............}}}##333+@.......@.......@.......@.......@.+#&&&&&&&&&&&#+#&&&&&&&&&&&#+.@.+#&&&&&&&&&&&&&&&&&&&&&&&&&#+.@.+#&&&&&&&&&&&&&&&&&&&&&&&&&#+.                                                                                                ",
"@.......@.......@.......@.......+}}}##}}}..............}}}##}}}+@.......@.......@.......@.......@.+#&&&&&&&&&&#+@+#&&&&&&&&&&#+.@..+#&&&&&&&&&&&&&&&&&&&&&&&#+..@.+#&&&&&&&&&&&&&&&&&&&&&&&&&#+.                                                                                                ",
"@.......@.......@.......@.......+}}}##}}}}}}}}}}}}}}}}}}}}##}}}+@.......@.......@.......@.......@..+#&&&&&&&&#+.@+#&&&&&&&&&#+..@..+#&&&&&&&&&&&&&&&&&&&&&&&#+..@..+#&&&&&&&&&&&&&&&&&&&&&&&#+..                                                                                                ",
"@@@@@@@@@@@@@@@@@@@@@@@@@@@@@@@@+}}}##}}}}}}}}}}}}}}}}}}}}##}}}+@@@@@@@@@@@@@@@@@@@@@@@@@@@@@@@@@@@+#&&&&&&&#+@@@@+#&&&&&&&&#+@@@@@@+#&&&&&&&&&&&&&&&&&&&&&#+@@@@@@+#&&&&&&&&&&&&&&&&&&&&&&&#+@@                                                                                                ",
"@.......@.......@.......@.......+333##}}}}}}}}}}}}}}}}}}}}##333+@.......@.......@.......@.......@...+#&&&&&#+...@.+#&&&&&&&#+...@...++#&&&&&&&&&&&&&&&&&&&#++...@...+#&&&&&&&&&&&&&&&&&&&&&#+...                                                                                                ",
"@.......@.......@.......@.......+333########################333+@.......@.......@.......@.......@...++#&&&&#+...@..+#&&&&&#++...@....++#&&&&&&&&&&&&&&&&&#++....@...++#&&&&&&&&&&&&&&&&&&&#++...                                                                                                ",
"@.......@.......@.......@.......+333########################333+@.......@.......@.......@.......@....++#&&#+....@..+#&&&&#++....@.....++##&&&&&&&&&&&&&##++.....@....++#&&&&&&&&&&&&&&&&&#++....                                                                                                ",
"@.......@.......@.......@.......+}}}333}}}333}}}}}}333}}}333}}}+@.......@.......@.......@.......@.....++##+.....@...+#&##>*.....@.......++##&&&&&&&&&##++.......@.....++##&&&&&&&&&&&&&##>*.....                                                                                                ",
"@.......@.......@.......@.......+}}}333}}}333}}}}}}333}}}333}}}+@.......@.......@.......@.......@.......++......@...+##++.......@.......@.++#########++.@.......@.......++##&&&&&&&&&##++.......                                                                                                ",
"@.......@.......@.......@.......+}}}333}}}333}}}}}}333}}}333}}}+@.......@.......@.......@.......@.......@.......@....++.@.......@.......@...+++++++++...@.......@.......@.++#########++.@.......                                                                                                ",
"@.......@.......@.......@.......++++++++++++++++++++++++++++++++@.......@.......@.......@.......@.......@.......@.......@.......@.......@.......@.......@.......@.......@...+++++++++...@.......                                                                                                "};
